<svg id="Calque_1" data-name="Calque 1" xmlns="http://www.w3.org/2000/svg" viewBox="0 0 864 404.8715">
  <g>
    <path id="type_CompoundPathItem_" data-name="type &lt;CompoundPathItem&gt;" d="M349.88,230.5475H336.1925V139.3011H349.88Z" style="fill: #fff"/>
    <path id="type_CompoundPathItem_2" data-name="type &lt;CompoundPathItem&gt;" d="M430.047,196.004c0,22.6815-13.2956,35.9772-30.893,35.9772-17.2063,0-30.1117-14.2081-30.1117-35.586,0-22.42,13.2956-35.7161,30.5028-35.7161C417.0115,160.6791,430.047,174.6269,430.047,196.004Zm-13.5567.3912c0-13.9479-6.6478-22.9417-17.4673-22.9417-10.1673,0-16.424,8.9938-16.424,22.5505,0,14.99,6.9089,23.2028,17.0762,23.2028S416.49,208.9094,416.49,196.3952Z" style="fill: #fff"/>
    <path id="type_CompoundPathItem_3" data-name="type &lt;CompoundPathItem&gt;" d="M517.9059,184.9243c0,32.1966-20.5957,45.6232-44.45,45.6232H448.5587V139.3011h24.8975C497.9625,139.3011,517.9059,152.7277,517.9059,184.9243Zm-13.9478,0c0-19.162-8.8638-32.3276-30.5019-32.3276H462.2455v64.6552h11.2107C495.0943,217.2519,503.9581,204.0864,503.9581,184.9243Z" style="fill: #fff"/>
    <path id="type_CompoundPathItem_4" data-name="type &lt;CompoundPathItem&gt;" d="M381.4255,341.166c0,15.1213-12.2531,20.2045-25.68,20.2045a46.7193,46.7193,0,0,1-26.2011-8.7336l6.1266-10.1673c6.3877,4.4318,13.5567,6.7788,19.9444,6.7788,8.4726,0,12.5133-2.7381,12.5133-7.5612,0-5.2132-5.9956-7.69-15.9027-11.4708-14.73-5.7354-20.0745-10.6885-20.0745-21.5081,0-12.2531,9.6461-18.64,23.3329-18.64a40.75,40.75,0,0,1,23.2027,7.56l-5.8655,10.2983a29.8073,29.8073,0,0,0-17.7275-5.8665c-6.5177,0-9.3859,2.6071-9.3859,6.2567,0,3.3894,2.347,5.8664,12.6444,9.9071C373.6043,324.09,381.4255,328.2615,381.4255,341.166Z" style="fill: #fff"/>
    <path id="type_CompoundPathItem_5" data-name="type &lt;CompoundPathItem&gt;" d="M455.0755,325.3934c0,22.6815-13.2956,35.9771-30.893,35.9771-17.2063,0-30.1117-14.208-30.1117-35.586,0-22.42,13.2956-35.7161,30.5028-35.7161C442.04,290.0684,455.0755,304.0163,455.0755,325.3934Zm-13.5567.3911c0-13.9478-6.6478-22.9417-17.4674-22.9417-10.1673,0-16.4239,8.9939-16.4239,22.5506,0,14.99,6.9089,23.2027,17.0762,23.2027S441.5188,338.2988,441.5188,325.7845Z" style="fill: #fff"/>
    <path id="type_CompoundPathItem_6" data-name="type &lt;CompoundPathItem&gt;" d="M485.71,359.9369H472.2836V271.95l13.4267-7.039Z" style="fill: #fff"/>
    <path id="type_CompoundPathItem_7" data-name="type &lt;CompoundPathItem&gt;" d="M560.6638,359.9369H547.2371v-6.5177c-3.3894,4.9531-10.1673,7.9513-17.2062,7.9513-15.9028,0-24.3763-10.4274-24.3763-30.6319V291.5021h13.4266v38.7143c0,13.8178,5.2142,18.7709,14.078,18.7709,8.9938,0,14.0779-6.3867,14.0779-17.4674V291.5021h13.4267Z" style="fill: #fff"/>
    <path id="type_CompoundPathItem_8" data-name="type &lt;CompoundPathItem&gt;" d="M614.7614,346.38l-1.5646,11.862a27.253,27.253,0,0,1-13.1656,3.1283c-9.5159,0-15.3814-5.8655-15.3814-18.1186V303.7552h-9.7762V291.5021H584.65V271.95l13.1655-7.039v26.5913h16.9461v12.2531H597.8153v37.1507c0,6.3867,2.0859,8.2115,7.039,8.2115A21.4889,21.4889,0,0,0,614.7614,346.38Z" style="fill: #fff"/>
    <path id="type_CompoundPathItem_9" data-name="type &lt;CompoundPathItem&gt;" d="M649.0448,274.0347a8.6684,8.6684,0,1,1-8.6036-8.7336A8.68,8.68,0,0,1,649.0448,274.0347ZM647.09,359.9369H633.6633V291.5021H647.09Z" style="fill: #fff"/>
    <path id="type_CompoundPathItem_10" data-name="type &lt;CompoundPathItem&gt;" d="M725.3019,325.3934c0,22.6815-13.2957,35.9771-30.8931,35.9771-17.2063,0-30.1117-14.208-30.1117-35.586,0-22.42,13.2957-35.7161,30.5029-35.7161C712.2664,290.0684,725.3019,304.0163,725.3019,325.3934Zm-13.5567.3911c0-13.9478-6.6479-22.9417-17.4674-22.9417-10.1673,0-16.4239,8.9939-16.4239,22.5506,0,14.99,6.9088,23.2027,17.0761,23.2027S711.7452,338.2988,711.7452,325.7845Z" style="fill: #fff"/>
    <path id="type_CompoundPathItem_11" data-name="type &lt;CompoundPathItem&gt;" d="M796.8669,359.9369H783.44V321.2226c0-13.8178-5.2141-18.7709-14.0779-18.7709-8.9938,0-14.0779,6.3876-14.0779,17.4673v40.0179H741.8587V291.5021h13.4257V298.02c3.3894-4.9531,10.1673-7.9514,17.2062-7.9514,15.9037,0,24.3763,10.4284,24.3763,30.6329Z" style="fill: #fff"/>
    <path id="type_CompoundPathItem_12" data-name="type &lt;CompoundPathItem&gt;" d="M864,341.166c0,15.1213-12.2531,20.2045-25.68,20.2045a46.719,46.719,0,0,1-26.201-8.7336l6.1266-10.1673c6.3877,4.4318,13.5567,6.7788,19.9444,6.7788,8.4726,0,12.5133-2.7381,12.5133-7.5612,0-5.2132-5.9956-7.69-15.9027-11.4708-14.73-5.7354-20.0745-10.6885-20.0745-21.5081,0-12.2531,9.6461-18.64,23.3329-18.64a40.75,40.75,0,0,1,23.2027,7.56l-5.8655,10.2983a29.8075,29.8075,0,0,0-17.7275-5.8665c-6.5177,0-9.3859,2.6071-9.3859,6.2567,0,3.3894,2.347,5.8664,12.6443,9.9071C856.1787,324.09,864,328.2615,864,341.166Z" style="fill: #fff"/>
    <g>
      <path d="M212.4573,251.6411a99.2055,99.2055,0,0,0-99.093-99.0932V350.734A99.2053,99.2053,0,0,0,212.4573,251.6411Z" style="fill: #fff"/>
      <path d="M113.3643,98.4106v39.8661a113.3642,113.3642,0,1,1,0,226.7284v39.8664a153.23,153.23,0,0,0,0-306.4609Z" style="fill: #fff"/>
      <path d="M113.364,350.734a99.0931,99.0931,0,0,1,0-198.1861h0V138.2767h0a113.3642,113.3642,0,0,0,0,226.7284h0V350.734Z" style="fill: #fff"/>
      <path d="M118.286,71.302c17.5974,0,30.8931-13.2957,30.8931-35.9772C149.1791,13.9478,136.1436,0,118.6772,0,101.47,0,88.1743,13.2955,88.1743,35.7161,88.1743,57.094,101.08,71.302,118.286,71.302Zm-.131-58.5277c10.82,0,17.4673,8.9938,17.4673,22.9418,0,12.5141-6.6477,22.8115-16.815,22.8115S101.731,50.3152,101.731,35.3248C101.731,21.7681,107.9878,12.7743,118.155,12.7743Z" style="fill: #fff"/>
    </g>
  </g>
</svg>
